<?xml version="1.0" encoding="UTF-8"?>
<svg version="1.1" xmlns="http://www.w3.org/2000/svg" width="487" height="126">
<path d="M0 0 C0.556875 0.7115625 0.556875 0.7115625 1.125 1.4375 C1.74375 1.128125 2.3625 0.81875 3 0.5 C7.44619436 -1.72309718 11.1065376 -1.70689319 16.03515625 -1.6953125 C16.91779648 -1.69626923 17.80043671 -1.69722595 18.70982361 -1.69821167 C20.57681347 -1.69889269 22.44380569 -1.69704385 24.31079102 -1.69287109 C27.17925288 -1.6875154 30.04755861 -1.69282199 32.91601562 -1.69921875 C34.72656285 -1.69855808 36.53710997 -1.69727715 38.34765625 -1.6953125 C39.64292992 -1.69834885 39.64292992 -1.69834885 40.96437073 -1.70144653 C47.01004561 -1.67745439 47.01004561 -1.67745439 48.125 -0.5625 C48.38488001 4.32559294 47.8196996 8.35392924 46.4453125 13.03515625 C45.91744141 14.85563477 45.91744141 14.85563477 45.37890625 16.71289062 C45.00636719 17.96263672 44.63382812 19.21238281 44.25 20.5 C43.88519531 21.75361328 43.52039063 23.00722656 43.14453125 24.29882812 C42.15473069 27.68394605 41.15744441 31.0651454 40.125 34.4375 C39.63169189 36.0915686 39.63169189 36.0915686 39.12841797 37.77905273 C38.125 40.4375 38.125 40.4375 36.125 41.4375 C34.5011931 41.59069964 32.87183328 41.6870211 31.2421875 41.75390625 C30.24654785 41.79596191 29.2509082 41.83801758 28.22509766 41.88134766 C27.16081543 41.92050293 26.0965332 41.9596582 25 42 C23.92153809 42.0417334 22.84307617 42.0834668 21.73193359 42.12646484 C-2.71327962 43.01836019 -2.71327962 43.01836019 -5.875 41.4375 C-6.42617484 34.55765694 -4.39776242 28.65016602 -2.375 22.125 C-1.71658227 19.96289853 -1.06022316 17.80016872 -0.40625 15.63671875 C0.03364258 14.21105591 0.03364258 14.21105591 0.48242188 12.7565918 C1.21400705 10.51734796 1.21400705 10.51734796 1.125 8.4375 C0.79886719 9.19675781 0.47273438 9.95601562 0.13671875 10.73828125 C-0.51876953 12.22908203 -0.51876953 12.22908203 -1.1875 13.75 C-1.61675781 14.73613281 -2.04601562 15.72226563 -2.48828125 16.73828125 C-3.78157934 19.25565866 -4.61271805 20.77706028 -6.875 22.4375 C-11.18232021 23.78547431 -15.65140997 23.58663808 -20.125 23.5625 C-21.22328125 23.56830078 -21.22328125 23.56830078 -22.34375 23.57421875 C-27.74828966 23.56421034 -27.74828966 23.56421034 -28.875 22.4375 C-28.26911676 14.5610179 -27.29172391 5.06258587 -22.875 -1.5625 C-19.609375 -2.109375 -19.609375 -2.109375 -15.625 -2.3125 C-13.66820312 -2.42851563 -13.66820312 -2.42851563 -11.671875 -2.546875 C-3.09858722 -2.58215602 -3.09858722 -2.58215602 0 0 Z " fill="#1C1C1C" transform="translate(69.875,70.5625)"/>
<path d="M0 0 C1.0427582 3.16977303 0.96621973 4.85677784 -0.2265625 7.953125 C-1.56362732 11.65926835 -2.66349177 15.35623504 -3.6484375 19.171875 C-4.07382813 20.78642578 -4.07382813 20.78642578 -4.5078125 22.43359375 C-5.08926902 24.65727206 -5.65946833 26.88392239 -6.21875 29.11328125 C-6.64800781 30.72009766 -6.64800781 30.72009766 -7.0859375 32.359375 C-7.3339209 33.32327148 -7.5819043 34.28716797 -7.83740234 35.28027344 C-9.37272339 38.87193166 -10.85717559 40.65592763 -14 43 C-16.92492471 43.67495011 -19.7402018 43.63168242 -22.73046875 43.55859375 C-23.97791618 43.55509666 -23.97791618 43.55509666 -25.25056458 43.55152893 C-27.0013765 43.54181539 -28.75215812 43.52008329 -30.50268555 43.48706055 C-33.18910953 43.43747029 -35.8737056 43.42556805 -38.56054688 43.41992188 C-40.26304041 43.40584225 -41.96551801 43.38964014 -43.66796875 43.37109375 C-44.47316452 43.36573105 -45.27836029 43.36036835 -46.10795593 43.35484314 C-51.76667231 43.23332769 -51.76667231 43.23332769 -54 41 C-53.52715989 32.62840466 -50.60572661 24.07929414 -48.5 16 C-48.19191406 14.78699219 -47.88382813 13.57398438 -47.56640625 12.32421875 C-47.26605469 11.16535156 -46.96570312 10.00648437 -46.65625 8.8125 C-46.38619141 7.76707031 -46.11613281 6.72164062 -45.83789062 5.64453125 C-45 3 -45 3 -43 0 C-40.15595896 -0.35061165 -37.51981633 -0.51313229 -34.66796875 -0.546875 C-33.83920731 -0.56719788 -33.01044586 -0.58752075 -32.15657043 -0.60845947 C-30.40066758 -0.64871046 -28.6445899 -0.68186083 -26.88842773 -0.70849609 C-24.20825172 -0.74968112 -21.52926268 -0.81232795 -18.84960938 -0.87890625 C-17.14325578 -0.91533122 -15.43687542 -0.95052728 -13.73046875 -0.984375 C-12.93134567 -1.0019989 -12.1322226 -1.0196228 -11.30888367 -1.03778076 C-7.38871349 -1.09192394 -3.82933289 -0.98161038 0 0 Z " fill="#333333" transform="translate(103,20)"/>
<path d="M0 0 C0.94875 0.00322266 1.8975 0.00644531 2.875 0.00976562 C3.80054688 -0.00634766 4.72609375 -0.02246094 5.6796875 -0.0390625 C12.56965163 -0.04392829 18.42287518 0.61345603 23.95703125 5.11914062 C29.75737664 12.17552188 32.4347479 17.98419999 32.15625 27.25585938 C31.24677857 34.12061966 28.29772772 39.44527494 22.9375 43.82226562 C16.60688424 48.46561706 8.91415395 48.64678774 1.375 48.57226562 C0.56933594 48.58 -0.23632812 48.58773437 -1.06640625 48.59570312 C-6.99642857 48.57583705 -6.99642857 48.57583705 -9.25 46.32226562 C-9.50396729 44.42480469 -9.50396729 44.42480469 -9.50878906 42.08789062 C-9.51509338 41.21358398 -9.52139771 40.33927734 -9.52789307 39.43847656 C-9.5238446 38.49262695 -9.51979614 37.54677734 -9.515625 36.57226562 C-9.51753845 35.60321289 -9.5194519 34.63416016 -9.52142334 33.63574219 C-9.52278579 31.58463278 -9.51908518 29.53351477 -9.51074219 27.48242188 C-9.50004359 24.33509023 -9.51063554 21.18832942 -9.5234375 18.04101562 C-9.52211592 16.05143103 -9.51955355 14.06184678 -9.515625 12.07226562 C-9.51967346 11.12641602 -9.52372192 10.18056641 -9.52789307 9.20605469 C-9.52158875 8.33174805 -9.51528442 7.45744141 -9.50878906 6.55664062 C-9.50719788 5.78545898 -9.50560669 5.01427734 -9.50396729 4.21972656 C-8.80638409 -0.99211346 -4.07370645 0.0319165 0 0 Z M-1.25 8.32226562 C-1.5818643 12.41525869 -1.67668119 16.51908274 -1.80761719 20.62304688 C-1.87450374 22.68198953 -1.95234199 24.74031531 -2.03125 26.79882812 C-2.07507813 28.09304687 -2.11890625 29.38726562 -2.1640625 30.72070312 C-2.2048291 31.91356934 -2.2455957 33.10643555 -2.28759766 34.33544922 C-2.40079765 37.3769756 -2.40079765 37.3769756 -1.25 40.32226562 C5.62651652 41.50018744 11.6526321 41.92748183 17.734375 38.06054688 C21.65295831 34.97587696 23.96931522 32.39671669 24.75 27.32226562 C24.81103956 21.09623026 24.25347595 15.93558245 19.75 11.32226562 C15.12514425 8.61668274 3.39659426 3.67567137 -1.25 8.32226562 Z " fill="#070403" transform="translate(153.25,43.677734375)"/>
<path d="M0 0 C4.42557618 1.71603974 5.23819947 5.06441542 7.0625 9.1875 C8.95623129 13.52542041 10.79805674 17.88358095 12.625 22.25 C13.58453703 24.53259344 14.54416972 26.81514668 15.50390625 29.09765625 C15.94774658 30.15927979 16.39158691 31.22090332 16.84887695 32.31469727 C17.83573794 34.65072488 18.85442324 36.96699473 19.890625 39.28125 C21.1711746 42.45701302 21.31074676 44.79479432 21.0625 48.1875 C18.75 48.875 18.75 48.875 16.0625 49.1875 C13.0625 46.1875 13.0625 46.1875 9.0625 38.1875 C2.4625 38.1875 -4.1375 38.1875 -10.9375 38.1875 C-11.72125 39.63125 -12.505 41.075 -13.3125 42.5625 C-14.72333001 45.16139739 -15.83913884 47.08913884 -17.9375 49.1875 C-20.5625 48.8125 -20.5625 48.8125 -22.9375 48.1875 C-22.53772904 40.66453732 -19.81561634 34.72461404 -16.6875 27.9375 C-15.72277622 25.80782676 -14.75923077 23.67761934 -13.796875 21.546875 C-13.32056641 20.50208984 -12.84425781 19.45730469 -12.35351562 18.38085938 C-10.49315204 14.18541874 -8.79507173 9.93045222 -7.12207031 5.65722656 C-5.31920235 1.89840293 -4.25517462 0.27160689 0 0 Z M-1.9375 15.1875 C-2.78074672 16.765576 -3.61173918 18.3502042 -4.4375 19.9375 C-4.9015625 20.81921875 -5.365625 21.7009375 -5.84375 22.609375 C-7.19786656 25.33446472 -7.19786656 25.33446472 -6.9375 29.1875 C-5.12568595 29.38151633 -3.31301468 29.56754375 -1.5 29.75 C-0.49066406 29.85441406 0.51867187 29.95882812 1.55859375 30.06640625 C2.79802734 30.12634766 2.79802734 30.12634766 4.0625 30.1875 C4.3925 29.8575 4.7225 29.5275 5.0625 29.1875 C4.71779893 23.44248208 3.06676619 19.93617882 0.0625 15.1875 C-0.5975 15.1875 -1.2575 15.1875 -1.9375 15.1875 Z " fill="#080504" transform="translate(364.9375,42.8125)"/>
<path d="M0 0 C5.7044877 3.21505374 8.35310556 7.49796712 10.20703125 13.6640625 C12.08196493 22.80942247 11.38497638 32.10388966 6.75 40.3125 C3.55316212 43.92229244 0.06891158 47.1007431 -4.859375 47.55078125 C-15.39881343 47.79984758 -15.39881343 47.79984758 -20.25 43.3125 C-26.01512168 37.06695151 -27.14359682 30.59066766 -27.25 22.3125 C-26.74462934 14.88167955 -25.52763162 7.87071456 -20.25 2.3125 C-13.90447761 -2.47042052 -7.20123367 -3.26722639 0 0 Z M-15.25 8.3125 C-19.68590195 13.57086402 -19.8001966 19.62933797 -19.5703125 26.25 C-19.01466864 31.5624974 -17.68695457 34.75579922 -14 38.75 C-10.39728904 40.79699486 -8.33441566 40.96892395 -4.25 40.3125 C-0.05630424 37.14392987 1.37882933 34.28978912 2.75 29.3125 C3.47280691 22.53828638 3.62849125 15.84947789 0.1015625 9.8359375 C-2.2944155 7.13526866 -4.82735781 6.34575047 -8.25 5.3125 C-10.99744089 5.3125 -13.01477995 6.91000899 -15.25 8.3125 Z " fill="#080504" transform="translate(309.25,44.6875)"/>
<path d="M0 0 C2.375 0 2.375 0 5 1 C9.45678108 6.54706657 11.80401679 13.22674907 14.5 19.75 C14.97308594 20.87921875 15.44617188 22.0084375 15.93359375 23.171875 C16.86288802 25.39600311 17.78494818 27.62316969 18.69921875 29.85351562 C19.53367595 31.87199992 20.38874661 33.88215577 21.26953125 35.88085938 C21.64464844 36.75033203 22.01976562 37.61980469 22.40625 38.515625 C22.73947266 39.26618164 23.07269531 40.01673828 23.41601562 40.79003906 C24.13152698 43.49773505 23.7227513 45.32440764 23 48 C20.525 48.495 20.525 48.495 18 49 C17.81050781 48.21753906 17.62101562 47.43507812 17.42578125 46.62890625 C16.04780652 42.83343199 14.99707515 40.76125378 12 38 C5.23962742 36.21525038 -2.06817523 36.68693198 -9 37 C-9.18175781 37.61488281 -9.36351562 38.22976562 -9.55078125 38.86328125 C-9.80214844 39.67152344 -10.05351562 40.47976562 -10.3125 41.3125 C-10.55613281 42.11300781 -10.79976562 42.91351563 -11.05078125 43.73828125 C-12.05879033 46.14008065 -12.93153095 47.42796352 -15 49 C-17.6875 48.6875 -17.6875 48.6875 -20 48 C-19.49203248 42.4371641 -18.47816574 38.09915952 -16.19921875 32.9375 C-15.78274834 31.98411743 -15.78274834 31.98411743 -15.35786438 31.01147461 C-14.47745807 29.00320426 -13.58258077 27.0017657 -12.6875 25 C-12.09869459 23.65925554 -11.51079689 22.31811205 -10.92382812 20.9765625 C-3.04742752 3.04742752 -3.04742752 3.04742752 0 0 Z M1 14 C-1.63365987 18.9221313 -3.64475824 23.57903298 -5 29 C-3.97791088 30.24301985 -3.97791088 30.24301985 -1.8203125 30.1328125 C-0.93085938 30.13023438 -0.04140625 30.12765625 0.875 30.125 C1.75929687 30.12757812 2.64359375 30.13015625 3.5546875 30.1328125 C6.13906291 30.10048585 6.13906291 30.10048585 9 29 C6.96937862 21.06792736 6.96937862 21.06792736 3 14 C2.34 14 1.68 14 1 14 Z " fill="#070605" transform="translate(211,43)"/>
<path d="M0 0 C2.48887234 0.21699137 3.66435414 0.66183651 5.43212891 2.44287109 C6.07287354 3.34900146 6.07287354 3.34900146 6.7265625 4.2734375 C7.2009375 4.9334375 7.6753125 5.5934375 8.1640625 6.2734375 C8.64617187 6.96695313 9.12828125 7.66046875 9.625 8.375 C10.11484375 9.06078125 10.6046875 9.7465625 11.109375 10.453125 C13.11831793 13.27442736 15.07867532 16.11801297 17 19 C20.3714789 17.8761737 20.74416248 17.31610144 22.62890625 14.47265625 C23.10650391 13.76302734 23.58410156 13.05339844 24.07617188 12.32226562 C24.56666016 11.57654297 25.05714844 10.83082031 25.5625 10.0625 C26.54117238 8.59385344 27.52156765 7.12635311 28.50390625 5.66015625 C28.93517822 5.00668213 29.3664502 4.35320801 29.81079102 3.67993164 C31 2 31 2 33 0 C35.625 0.375 35.625 0.375 38 1 C38.73306345 5.46306279 37.71428225 7.83794867 35.2265625 11.41796875 C34.04037139 13.01853242 32.8392932 14.60815031 31.625 16.1875 C30.42965147 17.78512929 29.23433753 19.38278446 28.0390625 20.98046875 C27.50490723 21.68067139 26.97075195 22.38087402 26.42041016 23.10229492 C23.96338517 26.3849445 22.75558864 28.29959913 22.65625 32.37890625 C22.61177734 33.63670898 22.61177734 33.63670898 22.56640625 34.91992188 C22.52203732 36.68554441 22.47776692 38.45116943 22.43359375 40.21679688 C22.38912109 41.47266602 22.38912109 41.47266602 22.34375 42.75390625 C22.32505859 43.52033447 22.30636719 44.2867627 22.28710938 45.07641602 C22 47 22 47 20 49 C15.44444444 48.44444444 15.44444444 48.44444444 14 47 C14.01910863 44.95537662 14.03933626 42.91075711 14.06542969 40.86621094 C14.05287135 29.91953023 11.43645218 23.74565151 4.33227539 15.57299805 C-1.79104478 8.34328358 -1.79104478 8.34328358 -2.4375 4.1875 C-2 2 -2 2 0 0 Z " fill="#080404" transform="translate(241,43)"/>
<path d="M0 0 C2 3 2 3 1.625 5.6875 C1.315625 6.8321875 1.315625 6.8321875 1 8 C1.99 8.33 2.98 8.66 4 9 C-1.73786408 20.73786408 -1.73786408 20.73786408 -5 24 C-9.34352078 25.27088201 -13.76262827 25.14921244 -18.25 25.125 C-19.34828125 25.13080078 -19.34828125 25.13080078 -20.46875 25.13671875 C-25.87328966 25.12671034 -25.87328966 25.12671034 -27 24 C-26.39411676 16.1235179 -25.41672391 6.62508587 -21 0 C-17.734375 -0.546875 -17.734375 -0.546875 -13.75 -0.75 C-11.79320312 -0.86601563 -11.79320312 -0.86601563 -9.796875 -0.984375 C-6.32941363 -0.99864439 -3.34863971 -0.89164963 0 0 Z " fill="#272627" transform="translate(68,69)"/>
<path d="M0 0 C0.95310059 0.01047363 1.90620117 0.02094727 2.88818359 0.03173828 C4.43505859 0.04140625 4.43505859 0.04140625 6.01318359 0.05126953 C7.63353516 0.07640625 7.63353516 0.07640625 9.28662109 0.10205078 C10.37458984 0.11107422 11.46255859 0.12009766 12.58349609 0.12939453 C15.27642261 0.15301669 17.96891365 0.18595522 20.66162109 0.22705078 C21.98361091 4.53364104 21.021541 7.97235779 19.91162109 12.22705078 C19.74146484 12.93861328 19.57130859 13.65017578 19.39599609 14.38330078 C17.45337157 22.03952686 17.45337157 22.03952686 14.66162109 24.22705078 C11.50356946 24.78769365 8.42264853 24.73860183 5.22412109 24.66455078 C3.93538086 24.67518555 3.93538086 24.67518555 2.62060547 24.68603516 C-3.66557905 24.62263686 -3.66557905 24.62263686 -6.93603516 22.69970703 C-7.39880859 22.21373047 -7.86158203 21.72775391 -8.33837891 21.22705078 C-5.13897248 0.49898146 -5.13897248 0.49898146 0 0 Z " fill="#282828" transform="translate(105.33837890625,38.77294921875)"/>
<path d="M0 0 C1.16819006 2.33638011 1.13268832 3.7233888 1.14526367 6.32617188 C1.15164352 7.22049927 1.15802338 8.11482666 1.16459656 9.03625488 C1.16570938 10.00397827 1.1668222 10.97170166 1.16796875 11.96875 C1.17129715 12.95999878 1.17462555 13.95124756 1.17805481 14.97253418 C1.18312293 17.07071467 1.18546317 19.16890324 1.18530273 21.26708984 C1.18749102 24.48678768 1.20565295 27.706144 1.22460938 30.92578125 C1.22754288 32.96093632 1.22952796 34.99609303 1.23046875 37.03125 C1.23765427 37.99897339 1.24483978 38.96669678 1.25224304 39.96374512 C1.24916641 40.85807251 1.24608978 41.7523999 1.24291992 42.67382812 C1.24434494 43.46277466 1.24576996 44.25172119 1.24723816 45.0645752 C1 47 1 47 -1 49 C-3.625 48.625 -3.625 48.625 -6 48 C-6.90331047 45.2900686 -7.12628885 43.7252603 -7.12939453 40.94335938 C-7.13254669 40.13241821 -7.13569885 39.32147705 -7.13894653 38.48596191 C-7.1369223 37.61403198 -7.13489807 36.74210205 -7.1328125 35.84375 C-7.13376923 34.94507202 -7.13472595 34.04639404 -7.13571167 33.1204834 C-7.13639205 31.22078379 -7.13454766 29.32108185 -7.13037109 27.42138672 C-7.12502085 24.51134018 -7.13032089 21.60144798 -7.13671875 18.69140625 C-7.13605794 16.84635383 -7.13477673 15.0013015 -7.1328125 13.15625 C-7.13483673 12.28432007 -7.13686096 11.41239014 -7.13894653 10.51403809 C-7.13579437 9.70309692 -7.13264221 8.89215576 -7.12939453 8.05664062 C-7.12859894 7.34399048 -7.12780334 6.63134033 -7.12698364 5.89709473 C-7 4 -7 4 -6 1 C-4 0 -4 0 0 0 Z " fill="#090702" transform="translate(401,43)"/>
<path d="M0 0 C2.49518108 1.52930453 2.87047343 2.62138387 3.8125 5.375 C4.03520387 8.49285425 3.45048685 10.25170913 2 13 C-1.19679291 14.59839645 -4.53012416 14.49671024 -8 14 C-10 12.4375 -10 12.4375 -11 10 C-11.35773097 6.60155579 -11.58904125 4.14126742 -10 1.0625 C-6.76732578 -0.65485818 -3.57293012 -0.54451753 0 0 Z " fill="#3E3D3D" transform="translate(422,84)"/>
<path d="M0 0 C2 1.375 2 1.375 4 3 C4 3.66 4 4.32 4 5 C2.35 5.33 0.7 5.66 -1 6 C-1.042721 4.33388095 -1.04063832 2.66617115 -1 1 C-0.67 0.67 -0.34 0.34 0 0 Z " fill="#101110" transform="translate(65,106)"/>
</svg>
